<svg width="370" height="812" viewBox="0 0 370 812" fill="none" xmlns="http://www.w3.org/2000/svg">
<rect width="370" height="812" fill="url(#paint0_linear_172_2095)"/>
<path d="M158.125 256.5H149.375C148.878 256.5 148.401 256.302 148.049 255.951C147.698 255.599 147.5 255.122 147.5 254.625V195.875C147.5 195.378 147.698 194.901 148.049 194.549C148.401 194.198 148.878 194 149.375 194H158.125C158.622 194 159.099 194.198 159.451 194.549C159.802 194.901 160 195.378 160 195.875V254.625C160 255.122 159.802 255.599 159.451 255.951C159.099 256.302 158.622 256.5 158.125 256.5ZM182.5 214V205.875C182.5 205.378 182.302 204.901 181.951 204.549C181.599 204.198 181.122 204 180.625 204H164.375C163.878 204 163.401 204.198 163.049 204.549C162.698 204.901 162.5 205.378 162.5 205.875V214H182.5ZM162.5 246.5V254.625C162.5 255.122 162.698 255.599 163.049 255.951C163.401 256.302 163.878 256.5 164.375 256.5H180.625C181.122 256.5 181.599 256.302 181.951 255.951C182.302 255.599 182.5 255.122 182.5 254.625V246.5H162.5ZM162.5 219H182.5V241.5H162.5V219ZM198.125 256.5H186.875C186.378 256.5 185.901 256.302 185.549 255.951C185.198 255.599 185 255.122 185 254.625V188.375C185 187.878 185.198 187.401 185.549 187.049C185.901 186.698 186.378 186.5 186.875 186.5H198.125C198.622 186.5 199.099 186.698 199.451 187.049C199.802 187.401 200 187.878 200 188.375V254.625C200 255.122 199.802 255.599 199.451 255.951C199.099 256.302 198.622 256.5 198.125 256.5ZM202.656 197.234L207.344 254.708C207.365 254.96 207.436 255.205 207.554 255.429C207.672 255.652 207.834 255.85 208.031 256.009C208.227 256.169 208.453 256.287 208.697 256.356C208.94 256.426 209.194 256.445 209.445 256.414L220.72 255.008C221.2 254.948 221.639 254.705 221.944 254.329C222.248 253.953 222.396 253.474 222.356 252.992L217.656 195.752C217.636 195.503 217.565 195.261 217.45 195.04C217.335 194.819 217.176 194.623 216.984 194.463C216.792 194.304 216.57 194.185 216.331 194.113C216.093 194.04 215.842 194.016 215.594 194.042L204.323 195.216C203.837 195.268 203.391 195.509 203.079 195.886C202.768 196.263 202.616 196.747 202.656 197.234Z" fill="#1599E4"/>
<path d="M104.773 282.761V279.227H123.341V282.761H116.148V302.5H111.966V282.761H104.773ZM124.926 302.5V285.045H128.915V287.955H129.097C129.415 286.947 129.96 286.17 130.733 285.625C131.513 285.072 132.403 284.795 133.403 284.795C133.631 284.795 133.884 284.807 134.165 284.83C134.453 284.845 134.691 284.871 134.881 284.909V288.693C134.706 288.633 134.43 288.58 134.051 288.534C133.68 288.481 133.32 288.455 132.972 288.455C132.222 288.455 131.547 288.617 130.949 288.943C130.358 289.261 129.892 289.705 129.551 290.273C129.21 290.841 129.04 291.496 129.04 292.239V302.5H124.926ZM144.622 302.841C142.872 302.841 141.361 302.477 140.088 301.75C138.823 301.015 137.849 299.977 137.168 298.636C136.486 297.288 136.145 295.701 136.145 293.875C136.145 292.08 136.486 290.504 137.168 289.148C137.857 287.784 138.819 286.723 140.054 285.966C141.289 285.201 142.74 284.818 144.406 284.818C145.482 284.818 146.497 284.992 147.452 285.341C148.414 285.682 149.262 286.212 149.997 286.932C150.74 287.652 151.323 288.568 151.747 289.682C152.171 290.788 152.384 292.106 152.384 293.636V294.898H138.077V292.125H148.44C148.433 291.337 148.262 290.636 147.929 290.023C147.596 289.402 147.13 288.913 146.531 288.557C145.94 288.201 145.251 288.023 144.463 288.023C143.622 288.023 142.884 288.227 142.247 288.636C141.611 289.038 141.115 289.568 140.759 290.227C140.41 290.879 140.232 291.595 140.224 292.375V294.795C140.224 295.811 140.41 296.682 140.781 297.409C141.152 298.129 141.671 298.682 142.338 299.068C143.005 299.447 143.785 299.636 144.679 299.636C145.277 299.636 145.819 299.553 146.304 299.386C146.789 299.212 147.209 298.958 147.565 298.625C147.921 298.292 148.19 297.879 148.372 297.386L152.213 297.818C151.971 298.833 151.509 299.72 150.827 300.477C150.152 301.227 149.289 301.811 148.236 302.227C147.183 302.636 145.978 302.841 144.622 302.841ZM156.045 302.5V279.227H171.182V282.761H160.261V289.08H170.398V292.614H160.261V298.966H171.273V302.5H156.045ZM185.881 289.17V292.557H175.403V289.17H185.881ZM190.389 302.5V279.227H199.298C200.98 279.227 202.378 279.492 203.491 280.023C204.613 280.545 205.45 281.261 206.003 282.17C206.563 283.08 206.844 284.11 206.844 285.261C206.844 286.208 206.662 287.019 206.298 287.693C205.935 288.36 205.446 288.902 204.832 289.318C204.219 289.735 203.533 290.034 202.776 290.216V290.443C203.601 290.489 204.393 290.742 205.151 291.205C205.916 291.659 206.541 292.303 207.026 293.136C207.51 293.97 207.753 294.977 207.753 296.159C207.753 297.364 207.461 298.447 206.878 299.409C206.295 300.364 205.416 301.117 204.241 301.67C203.067 302.223 201.59 302.5 199.81 302.5H190.389ZM194.605 298.977H199.139C200.67 298.977 201.772 298.686 202.446 298.102C203.128 297.511 203.469 296.754 203.469 295.83C203.469 295.14 203.298 294.519 202.957 293.966C202.616 293.405 202.132 292.966 201.503 292.648C200.874 292.322 200.124 292.159 199.253 292.159H194.605V298.977ZM194.605 289.125H198.776C199.503 289.125 200.158 288.992 200.741 288.727C201.325 288.455 201.783 288.072 202.116 287.58C202.457 287.08 202.628 286.489 202.628 285.807C202.628 284.905 202.31 284.163 201.673 283.58C201.045 282.996 200.109 282.705 198.866 282.705H194.605V289.125ZM218.852 302.841C217.148 302.841 215.67 302.466 214.42 301.716C213.17 300.966 212.201 299.917 211.511 298.568C210.83 297.22 210.489 295.644 210.489 293.841C210.489 292.038 210.83 290.458 211.511 289.102C212.201 287.746 213.17 286.693 214.42 285.943C215.67 285.193 217.148 284.818 218.852 284.818C220.557 284.818 222.034 285.193 223.284 285.943C224.534 286.693 225.5 287.746 226.182 289.102C226.871 290.458 227.216 292.038 227.216 293.841C227.216 295.644 226.871 297.22 226.182 298.568C225.5 299.917 224.534 300.966 223.284 301.716C222.034 302.466 220.557 302.841 218.852 302.841ZM218.875 299.545C219.799 299.545 220.572 299.292 221.193 298.784C221.814 298.269 222.277 297.58 222.58 296.716C222.89 295.852 223.045 294.89 223.045 293.83C223.045 292.761 222.89 291.795 222.58 290.932C222.277 290.061 221.814 289.367 221.193 288.852C220.572 288.337 219.799 288.08 218.875 288.08C217.928 288.08 217.14 288.337 216.511 288.852C215.89 289.367 215.424 290.061 215.114 290.932C214.811 291.795 214.659 292.761 214.659 293.83C214.659 294.89 214.811 295.852 215.114 296.716C215.424 297.58 215.89 298.269 216.511 298.784C217.14 299.292 217.928 299.545 218.875 299.545ZM238.321 302.841C236.616 302.841 235.139 302.466 233.889 301.716C232.639 300.966 231.67 299.917 230.98 298.568C230.298 297.22 229.957 295.644 229.957 293.841C229.957 292.038 230.298 290.458 230.98 289.102C231.67 287.746 232.639 286.693 233.889 285.943C235.139 285.193 236.616 284.818 238.321 284.818C240.026 284.818 241.503 285.193 242.753 285.943C244.003 286.693 244.969 287.746 245.651 289.102C246.34 290.458 246.685 292.038 246.685 293.841C246.685 295.644 246.34 297.22 245.651 298.568C244.969 299.917 244.003 300.966 242.753 301.716C241.503 302.466 240.026 302.841 238.321 302.841ZM238.344 299.545C239.268 299.545 240.041 299.292 240.662 298.784C241.283 298.269 241.745 297.58 242.048 296.716C242.359 295.852 242.514 294.89 242.514 293.83C242.514 292.761 242.359 291.795 242.048 290.932C241.745 290.061 241.283 289.367 240.662 288.852C240.041 288.337 239.268 288.08 238.344 288.08C237.397 288.08 236.609 288.337 235.98 288.852C235.359 289.367 234.893 290.061 234.582 290.932C234.279 291.795 234.128 292.761 234.128 293.83C234.128 294.89 234.279 295.852 234.582 296.716C234.893 297.58 235.359 298.269 235.98 298.784C236.609 299.292 237.397 299.545 238.344 299.545ZM253.926 297.023L253.915 292.057H254.574L260.847 285.045H265.653L257.938 293.636H257.085L253.926 297.023ZM250.176 302.5V279.227H254.29V302.5H250.176ZM261.131 302.5L255.449 294.557L258.222 291.659L266.051 302.5H261.131Z" fill="white"/>
<path d="M123.83 472.94V476.348H129.326V479.516H123.83V483.212H130.046V486.5H119.726V469.652H130.046V472.94H123.83ZM140.871 472.964C142.439 472.964 143.687 473.476 144.615 474.5C145.559 475.508 146.031 476.9 146.031 478.676V486.5H141.951V479.228C141.951 478.332 141.719 477.636 141.255 477.14C140.791 476.644 140.167 476.396 139.383 476.396C138.599 476.396 137.975 476.644 137.511 477.14C137.047 477.636 136.815 478.332 136.815 479.228V486.5H132.711V473.108H136.815V474.884C137.231 474.292 137.791 473.828 138.495 473.492C139.199 473.14 139.991 472.964 140.871 472.964ZM156.347 483.02V486.5H154.259C152.771 486.5 151.611 486.14 150.779 485.42C149.947 484.684 149.531 483.492 149.531 481.844V476.516H147.899V473.108H149.531V469.844H153.635V473.108H156.323V476.516H153.635V481.892C153.635 482.292 153.731 482.58 153.923 482.756C154.115 482.932 154.435 483.02 154.883 483.02H156.347ZM162.737 475.34C163.217 474.604 163.817 474.028 164.537 473.612C165.257 473.18 166.057 472.964 166.937 472.964V477.308H165.809C164.785 477.308 164.017 477.532 163.505 477.98C162.993 478.412 162.737 479.18 162.737 480.284V486.5H158.633V473.108H162.737V475.34ZM168.082 479.78C168.082 478.404 168.338 477.196 168.85 476.156C169.378 475.116 170.09 474.316 170.986 473.756C171.882 473.196 172.882 472.916 173.986 472.916C174.93 472.916 175.754 473.108 176.458 473.492C177.178 473.876 177.73 474.38 178.114 475.004V473.108H182.218V486.5H178.114V484.604C177.714 485.228 177.154 485.732 176.434 486.116C175.73 486.5 174.906 486.692 173.962 486.692C172.874 486.692 171.882 486.412 170.986 485.852C170.09 485.276 169.378 484.468 168.85 483.428C168.338 482.372 168.082 481.156 168.082 479.78ZM178.114 479.804C178.114 478.78 177.826 477.972 177.25 477.38C176.69 476.788 176.002 476.492 175.186 476.492C174.37 476.492 173.674 476.788 173.098 477.38C172.538 477.956 172.258 478.756 172.258 479.78C172.258 480.804 172.538 481.62 173.098 482.228C173.674 482.82 174.37 483.116 175.186 483.116C176.002 483.116 176.69 482.82 177.25 482.228C177.826 481.636 178.114 480.828 178.114 479.804ZM193.347 472.964C194.915 472.964 196.163 473.476 197.091 474.5C198.035 475.508 198.507 476.9 198.507 478.676V486.5H194.427V479.228C194.427 478.332 194.195 477.636 193.731 477.14C193.267 476.644 192.643 476.396 191.859 476.396C191.075 476.396 190.451 476.644 189.987 477.14C189.523 477.636 189.291 478.332 189.291 479.228V486.5H185.187V473.108H189.291V474.884C189.707 474.292 190.267 473.828 190.971 473.492C191.675 473.14 192.467 472.964 193.347 472.964ZM200.543 479.78C200.543 478.404 200.799 477.196 201.311 476.156C201.839 475.116 202.551 474.316 203.447 473.756C204.343 473.196 205.343 472.916 206.447 472.916C207.327 472.916 208.127 473.1 208.847 473.468C209.583 473.836 210.159 474.332 210.575 474.956V468.74H214.679V486.5H210.575V484.58C210.191 485.22 209.639 485.732 208.919 486.116C208.215 486.5 207.391 486.692 206.447 486.692C205.343 486.692 204.343 486.412 203.447 485.852C202.551 485.276 201.839 484.468 201.311 483.428C200.799 482.372 200.543 481.156 200.543 479.78ZM210.575 479.804C210.575 478.78 210.287 477.972 209.711 477.38C209.151 476.788 208.463 476.492 207.647 476.492C206.831 476.492 206.135 476.788 205.559 477.38C204.999 477.956 204.719 478.756 204.719 479.78C204.719 480.804 204.999 481.62 205.559 482.228C206.135 482.82 206.831 483.116 207.647 483.116C208.463 483.116 209.151 482.82 209.711 482.228C210.287 481.636 210.575 480.828 210.575 479.804ZM223.744 486.692C222.432 486.692 221.248 486.412 220.192 485.852C219.152 485.292 218.328 484.492 217.72 483.452C217.128 482.412 216.832 481.196 216.832 479.804C216.832 478.428 217.136 477.22 217.744 476.18C218.352 475.124 219.184 474.316 220.24 473.756C221.296 473.196 222.48 472.916 223.792 472.916C225.104 472.916 226.288 473.196 227.344 473.756C228.4 474.316 229.232 475.124 229.84 476.18C230.448 477.22 230.752 478.428 230.752 479.804C230.752 481.18 230.44 482.396 229.816 483.452C229.208 484.492 228.368 485.292 227.296 485.852C226.24 486.412 225.056 486.692 223.744 486.692ZM223.744 483.14C224.528 483.14 225.192 482.852 225.736 482.276C226.296 481.7 226.576 480.876 226.576 479.804C226.576 478.732 226.304 477.908 225.76 477.332C225.232 476.756 224.576 476.468 223.792 476.468C222.992 476.468 222.328 476.756 221.8 477.332C221.272 477.892 221.008 478.716 221.008 479.804C221.008 480.876 221.264 481.7 221.776 482.276C222.304 482.852 222.96 483.14 223.744 483.14ZM234.849 486.692C234.129 486.692 233.537 486.484 233.073 486.068C232.625 485.636 232.401 485.108 232.401 484.484C232.401 483.844 232.625 483.308 233.073 482.876C233.537 482.444 234.129 482.228 234.849 482.228C235.553 482.228 236.129 482.444 236.577 482.876C237.041 483.308 237.273 483.844 237.273 484.484C237.273 485.108 237.041 485.636 236.577 486.068C236.129 486.484 235.553 486.692 234.849 486.692ZM241.623 486.692C240.903 486.692 240.311 486.484 239.847 486.068C239.399 485.636 239.175 485.108 239.175 484.484C239.175 483.844 239.399 483.308 239.847 482.876C240.311 482.444 240.903 482.228 241.623 482.228C242.327 482.228 242.903 482.444 243.351 482.876C243.815 483.308 244.047 483.844 244.047 484.484C244.047 485.108 243.815 485.636 243.351 486.068C242.903 486.484 242.327 486.692 241.623 486.692ZM248.396 486.692C247.676 486.692 247.084 486.484 246.62 486.068C246.172 485.636 245.948 485.108 245.948 484.484C245.948 483.844 246.172 483.308 246.62 482.876C247.084 482.444 247.676 482.228 248.396 482.228C249.1 482.228 249.676 482.444 250.124 482.876C250.588 483.308 250.82 483.844 250.82 484.484C250.82 485.108 250.588 485.636 250.124 486.068C249.676 486.484 249.1 486.692 248.396 486.692Z" fill="white"/>
<path d="M169.277 651.076L166.289 659.5H163.721L160.733 651.076H162.917L165.005 657.436L167.105 651.076H169.277ZM172.187 652.72V654.424H174.935V656.008H172.187V657.856H175.295V659.5H170.135V651.076H175.295V652.72H172.187ZM180.923 659.5L179.171 656.32H178.679V659.5H176.627V651.076H180.071C180.735 651.076 181.299 651.192 181.763 651.424C182.235 651.656 182.587 651.976 182.819 652.384C183.051 652.784 183.167 653.232 183.167 653.728C183.167 654.288 183.007 654.788 182.687 655.228C182.375 655.668 181.911 655.98 181.295 656.164L183.239 659.5H180.923ZM178.679 654.868H179.951C180.327 654.868 180.607 654.776 180.791 654.592C180.983 654.408 181.079 654.148 181.079 653.812C181.079 653.492 180.983 653.24 180.791 653.056C180.607 652.872 180.327 652.78 179.951 652.78H178.679V654.868ZM187.503 659.584C186.887 659.584 186.335 659.484 185.847 659.284C185.359 659.084 184.967 658.788 184.671 658.396C184.383 658.004 184.231 657.532 184.215 656.98H186.399C186.431 657.292 186.539 657.532 186.723 657.7C186.907 657.86 187.147 657.94 187.443 657.94C187.747 657.94 187.987 657.872 188.163 657.736C188.339 657.592 188.427 657.396 188.427 657.148C188.427 656.94 188.355 656.768 188.211 656.632C188.075 656.496 187.903 656.384 187.695 656.296C187.495 656.208 187.207 656.108 186.831 655.996C186.287 655.828 185.843 655.66 185.499 655.492C185.155 655.324 184.859 655.076 184.611 654.748C184.363 654.42 184.239 653.992 184.239 653.464C184.239 652.68 184.523 652.068 185.091 651.628C185.659 651.18 186.399 650.956 187.311 650.956C188.239 650.956 188.987 651.18 189.555 651.628C190.123 652.068 190.427 652.684 190.467 653.476H188.247C188.231 653.204 188.131 652.992 187.947 652.84C187.763 652.68 187.527 652.6 187.239 652.6C186.991 652.6 186.791 652.668 186.639 652.804C186.487 652.932 186.411 653.12 186.411 653.368C186.411 653.64 186.539 653.852 186.795 654.004C187.051 654.156 187.451 654.32 187.995 654.496C188.539 654.68 188.979 654.856 189.315 655.024C189.659 655.192 189.955 655.436 190.203 655.756C190.451 656.076 190.575 656.488 190.575 656.992C190.575 657.472 190.451 657.908 190.203 658.3C189.963 658.692 189.611 659.004 189.147 659.236C188.683 659.468 188.135 659.584 187.503 659.584ZM197.082 658.012H193.938L193.434 659.5H191.286L194.334 651.076H196.71L199.758 659.5H197.586L197.082 658.012ZM196.554 656.428L195.51 653.344L194.478 656.428H196.554ZM193.122 650.488C193.314 649.304 193.866 648.712 194.778 648.712C194.954 648.712 195.106 648.74 195.234 648.796C195.37 648.844 195.534 648.92 195.726 649.024C195.87 649.104 195.986 649.164 196.074 649.204C196.162 649.236 196.254 649.252 196.35 649.252C196.646 649.252 196.818 649.072 196.866 648.712H197.922C197.73 649.896 197.178 650.488 196.266 650.488C196.09 650.488 195.934 650.464 195.798 650.416C195.67 650.36 195.51 650.28 195.318 650.176C195.174 650.096 195.058 650.04 194.97 650.008C194.882 649.968 194.79 649.948 194.694 649.948C194.398 649.948 194.222 650.128 194.166 650.488H193.122ZM204.669 659.584C203.877 659.584 203.149 659.4 202.485 659.032C201.829 658.664 201.305 658.152 200.913 657.496C200.529 656.832 200.337 656.088 200.337 655.264C200.337 654.44 200.529 653.7 200.913 653.044C201.305 652.388 201.829 651.876 202.485 651.508C203.149 651.14 203.877 650.956 204.669 650.956C205.461 650.956 206.185 651.14 206.841 651.508C207.505 651.876 208.025 652.388 208.401 653.044C208.785 653.7 208.977 654.44 208.977 655.264C208.977 656.088 208.785 656.832 208.401 657.496C208.017 658.152 207.497 658.664 206.841 659.032C206.185 659.4 205.461 659.584 204.669 659.584ZM204.669 657.712C205.341 657.712 205.877 657.488 206.277 657.04C206.685 656.592 206.889 656 206.889 655.264C206.889 654.52 206.685 653.928 206.277 653.488C205.877 653.04 205.341 652.816 204.669 652.816C203.989 652.816 203.445 653.036 203.037 653.476C202.637 653.916 202.437 654.512 202.437 655.264C202.437 656.008 202.637 656.604 203.037 657.052C203.445 657.492 203.989 657.712 204.669 657.712ZM146.875 681.516H142.683L142.011 683.5H139.147L143.211 672.268H146.379L150.443 683.5H147.547L146.875 681.516ZM146.171 679.404L144.779 675.292L143.403 679.404H146.171ZM154.416 681.388H158V683.5H151.68V672.268H154.416V681.388ZM167.865 675.884C167.865 676.535 167.715 677.132 167.417 677.676C167.118 678.209 166.659 678.641 166.041 678.972C165.422 679.303 164.654 679.468 163.737 679.468H162.041V683.5H159.305V672.268H163.737C164.633 672.268 165.39 672.423 166.009 672.732C166.627 673.041 167.091 673.468 167.401 674.012C167.71 674.556 167.865 675.18 167.865 675.884ZM163.529 677.292C164.051 677.292 164.441 677.169 164.697 676.924C164.953 676.679 165.081 676.332 165.081 675.884C165.081 675.436 164.953 675.089 164.697 674.844C164.441 674.599 164.051 674.476 163.529 674.476H162.041V677.292H163.529ZM179.017 672.268V683.5H176.281V678.876H172.025V683.5H169.289V672.268H172.025V676.668H176.281V672.268H179.017ZM187.984 681.516H183.792L183.12 683.5H180.256L184.32 672.268H187.488L191.552 683.5H188.656L187.984 681.516ZM187.28 679.404L185.888 675.292L184.512 679.404H187.28ZM195.62 674.364V671.82H200.052V683.5H197.204V674.364H195.62ZM203.475 683.628C202.995 683.628 202.6 683.489 202.291 683.212C201.992 682.924 201.843 682.572 201.843 682.156C201.843 681.729 201.992 681.372 202.291 681.084C202.6 680.796 202.995 680.652 203.475 680.652C203.944 680.652 204.328 680.796 204.627 681.084C204.936 681.372 205.091 681.729 205.091 682.156C205.091 682.572 204.936 682.924 204.627 683.212C204.328 683.489 203.944 683.628 203.475 683.628ZM206.439 677.5C206.439 675.665 206.791 674.22 207.495 673.164C208.209 672.108 209.356 671.58 210.935 671.58C212.513 671.58 213.655 672.108 214.359 673.164C215.073 674.22 215.431 675.665 215.431 677.5C215.431 679.356 215.073 680.812 214.359 681.868C213.655 682.924 212.513 683.452 210.935 683.452C209.356 683.452 208.209 682.924 207.495 681.868C206.791 680.812 206.439 679.356 206.439 677.5ZM212.743 677.5C212.743 676.423 212.625 675.596 212.391 675.02C212.156 674.433 211.671 674.14 210.935 674.14C210.199 674.14 209.713 674.433 209.479 675.02C209.244 675.596 209.127 676.423 209.127 677.5C209.127 678.225 209.169 678.828 209.255 679.308C209.34 679.777 209.511 680.161 209.767 680.46C210.033 680.748 210.423 680.892 210.935 680.892C211.447 680.892 211.831 680.748 212.087 680.46C212.353 680.161 212.529 679.777 212.615 679.308C212.7 678.828 212.743 678.225 212.743 677.5ZM218.428 683.628C217.948 683.628 217.554 683.489 217.244 683.212C216.946 682.924 216.796 682.572 216.796 682.156C216.796 681.729 216.946 681.372 217.244 681.084C217.554 680.796 217.948 680.652 218.428 680.652C218.898 680.652 219.282 680.796 219.58 681.084C219.89 681.372 220.044 681.729 220.044 682.156C220.044 682.572 219.89 682.924 219.58 683.212C219.282 683.489 218.898 683.628 218.428 683.628ZM221.392 677.5C221.392 675.665 221.744 674.22 222.448 673.164C223.163 672.108 224.309 671.58 225.888 671.58C227.467 671.58 228.608 672.108 229.312 673.164C230.027 674.22 230.384 675.665 230.384 677.5C230.384 679.356 230.027 680.812 229.312 681.868C228.608 682.924 227.467 683.452 225.888 683.452C224.309 683.452 223.163 682.924 222.448 681.868C221.744 680.812 221.392 679.356 221.392 677.5ZM227.696 677.5C227.696 676.423 227.579 675.596 227.344 675.02C227.109 674.433 226.624 674.14 225.888 674.14C225.152 674.14 224.667 674.433 224.432 675.02C224.197 675.596 224.08 676.423 224.08 677.5C224.08 678.225 224.123 678.828 224.208 679.308C224.293 679.777 224.464 680.161 224.72 680.46C224.987 680.748 225.376 680.892 225.888 680.892C226.4 680.892 226.784 680.748 227.04 680.46C227.307 680.161 227.483 679.777 227.568 679.308C227.653 678.828 227.696 678.225 227.696 677.5Z" fill="white"/>
<defs>
<linearGradient id="paint0_linear_172_2095" x1="185" y1="0" x2="185" y2="812" gradientUnits="userSpaceOnUse">
<stop stop-color="#313131"/>
<stop offset="1" stop-color="#0D2633"/>
</linearGradient>
</defs>
</svg>
